<svg viewBox="0 0 116 132" fill="none" xmlns="http://www.w3.org/2000/svg">
<path d="M58 0L115.158 33V99L58 132L0.842323 99V33L58 0Z" fill="#bb69ff"/>
<circle cx="58" cy="66" r="33.5" stroke="#fafafa" stroke-width="5"/>
<path d="M68.965 75.3275C69.295 75.3275 69.5875 75.455 69.8425 75.71L72.2275 78.2975C70.9075 79.9325 69.28 81.185 67.345 82.055C65.425 82.925 63.115 83.36 60.415 83.36C58 83.36 55.825 82.9475 53.89 82.1225C51.97 81.2975 50.3275 80.15 48.9625 78.68C47.5975 77.21 46.5475 75.455 45.8125 73.415C45.0925 71.375 44.7325 69.1475 44.7325 66.7325C44.7325 64.2875 45.1225 62.0525 45.9025 60.0275C46.6825 57.9875 47.7775 56.2325 49.1875 54.7625C50.6125 53.2925 52.3075 52.1525 54.2725 51.3425C56.2375 50.5175 58.4125 50.105 60.7975 50.105C63.1675 50.105 65.2675 50.495 67.0975 51.275C68.9425 52.055 70.51 53.075 71.8 54.335L69.775 57.1475C69.655 57.3275 69.4975 57.485 69.3025 57.62C69.1225 57.755 68.8675 57.8225 68.5375 57.8225C68.3125 57.8225 68.08 57.7625 67.84 57.6425C67.6 57.5075 67.3375 57.35 67.0525 57.17C66.7675 56.975 66.4375 56.765 66.0625 56.54C65.6875 56.315 65.2525 56.1125 64.7575 55.9325C64.2625 55.7375 63.685 55.58 63.025 55.46C62.38 55.325 61.63 55.2575 60.775 55.2575C59.32 55.2575 57.985 55.52 56.77 56.045C55.57 56.555 54.535 57.305 53.665 58.295C52.795 59.27 52.12 60.47 51.64 61.895C51.16 63.305 50.92 64.9175 50.92 66.7325C50.92 68.5625 51.175 70.19 51.685 71.615C52.21 73.04 52.915 74.24 53.8 75.215C54.685 76.19 55.7275 76.94 56.9275 77.465C58.1275 77.975 59.4175 78.23 60.7975 78.23C61.6225 78.23 62.365 78.185 63.025 78.095C63.7 78.005 64.315 77.8625 64.87 77.6675C65.44 77.4725 65.9725 77.225 66.4675 76.925C66.9775 76.61 67.48 76.2275 67.975 75.7775C68.125 75.6425 68.2825 75.5375 68.4475 75.4625C68.6125 75.3725 68.785 75.3275 68.965 75.3275Z" fill="#fafafa"/>
</svg>
