<svg viewBox="0 0 116 132" fill="none" xmlns="http://www.w3.org/2000/svg">
<path d="M58 0L115.158 33V99L58 132L0.842323 99V33L58 0Z" fill="#bb69ff" />
<circle cx="58" cy="66" r="33.5" stroke="#fafafa" stroke-width="5"/>
<path d="M43.585 62.12H46.5775C46.9225 60.29 47.47 58.64 48.22 57.17C48.97 55.685 49.885 54.425 50.965 53.39C52.045 52.355 53.2675 51.56 54.6325 51.005C55.9975 50.435 57.4825 50.15 59.0875 50.15C61.1725 50.15 62.9575 50.555 64.4425 51.365C65.9275 52.16 67.1725 53.24 68.1775 54.605L66.22 56.72C66.07 56.885 65.9125 57.035 65.7475 57.17C65.5825 57.29 65.35 57.35 65.05 57.35C64.84 57.35 64.645 57.29 64.465 57.17C64.3 57.05 64.1125 56.9 63.9025 56.72C63.6925 56.54 63.46 56.345 63.205 56.135C62.95 55.925 62.6425 55.73 62.2825 55.55C61.9375 55.37 61.525 55.22 61.045 55.1C60.565 54.98 59.995 54.92 59.335 54.92C57.565 54.92 56.0725 55.5275 54.8575 56.7425C53.6425 57.9575 52.795 59.75 52.315 62.12H63.61V63.83C63.61 64.175 63.4675 64.4975 63.1825 64.7975C62.9125 65.0825 62.5375 65.225 62.0575 65.225H51.9325C51.9175 65.48 51.91 65.735 51.91 65.99C51.91 66.23 51.91 66.4775 51.91 66.7325C51.91 66.9125 51.91 67.0925 51.91 67.2725C51.91 67.4525 51.9175 67.625 51.9325 67.79H61.4725V69.4775C61.4725 69.8225 61.33 70.145 61.045 70.445C60.76 70.73 60.385 70.8725 59.92 70.8725H52.2025C52.6225 73.4525 53.425 75.38 54.61 76.655C55.81 77.915 57.295 78.545 59.065 78.545C60.145 78.545 61.0075 78.4025 61.6525 78.1175C62.3125 77.8175 62.845 77.4875 63.25 77.1275C63.67 76.7675 64.015 76.445 64.285 76.16C64.57 75.86 64.8775 75.71 65.2075 75.71C65.3725 75.71 65.515 75.74 65.635 75.8C65.755 75.845 65.8825 75.9425 66.0175 76.0925L68.425 78.2975C67.375 79.9175 66.04 81.1625 64.42 82.0325C62.8 82.8875 60.9175 83.315 58.7725 83.315C57.0025 83.315 55.4125 83.0225 54.0025 82.4375C52.6075 81.8375 51.3925 80.9975 50.3575 79.9175C49.3225 78.8375 48.475 77.5325 47.815 76.0025C47.17 74.4725 46.7125 72.7625 46.4425 70.8725H43.585V67.79H46.195C46.18 67.625 46.1725 67.4525 46.1725 67.2725C46.1725 67.0925 46.1725 66.9125 46.1725 66.7325C46.1725 66.4775 46.1725 66.23 46.1725 65.99C46.1725 65.735 46.18 65.48 46.195 65.225H43.585V62.12Z" fill="#fafafa"/>
</svg>
