<svg viewBox="0 0 78 70" fill="none" xmlns="http://www.w3.org/2000/svg">
<path fill-rule="evenodd" clip-rule="evenodd" d="M35.8454 0H31.1419V29.4654C29.2563 28.104 26.9342 27.3008 24.4227 27.3008C18.1141 27.3008 13 32.3688 13 38.6206C13 44.8723 18.1141 49.9404 24.4227 49.9404C30.6189 49.9404 35.6628 45.0513 35.8405 38.9535H35.8454V0Z" />
<path fill-rule="evenodd" clip-rule="evenodd" d="M50.6276 49.9404C44.3191 49.9404 39.205 44.8724 39.205 38.6206C39.205 32.3688 44.3191 27.3008 50.6276 27.3008C56.9362 27.3008 62.0503 32.3688 62.0503 38.6206C62.0503 39.0711 62.0237 39.5155 61.9721 39.9523H51.4675L51.4675 39.9523H43.7068C44.3294 42.9916 47.041 45.2792 50.2916 45.2792C52.2145 45.2792 53.9488 44.4787 55.1736 43.1957L58.8841 46.4431C56.8045 48.5982 53.8742 49.9404 50.6276 49.9404ZM50.2916 31.9618C52.915 31.9618 55.1872 33.4516 56.2938 35.6241H44.2895C45.396 33.4516 47.6683 31.9618 50.2916 31.9618Z" />
<path d="M10.6985 67.2817V57.2817H13.7385L13.8385 59.2217C14.1585 58.515 14.6052 57.9817 15.1785 57.6217C15.7652 57.2617 16.4385 57.0817 17.1985 57.0817C17.9318 57.0817 18.5718 57.2484 19.1185 57.5817C19.6785 57.915 20.0918 58.4084 20.3585 59.0617C20.6652 58.4084 21.1185 57.915 21.7185 57.5817C22.3318 57.2484 22.9985 57.0817 23.7185 57.0817C24.7052 57.0817 25.5185 57.3817 26.1585 57.9817C26.8118 58.5684 27.1385 59.4484 27.1385 60.6217V67.2817H23.7385V61.4017C23.7385 60.7617 23.6118 60.315 23.3585 60.0617C23.1052 59.8084 22.7785 59.6817 22.3785 59.6817C21.8718 59.6817 21.4518 59.875 21.1185 60.2617C20.7852 60.635 20.6185 61.195 20.6185 61.9417V67.2817H17.2185V61.4017C17.2185 60.7617 17.0918 60.315 16.8385 60.0617C16.5852 59.8084 16.2585 59.6817 15.8585 59.6817C15.3918 59.6817 14.9785 59.8617 14.6185 60.2217C14.2718 60.5817 14.0985 61.175 14.0985 62.0017V67.2817H10.6985ZM32.9066 67.4817C31.8933 67.4817 31.0666 67.2084 30.4266 66.6617C29.7866 66.115 29.4666 65.215 29.4666 63.9617V57.2817H32.8666V63.1617C32.8666 63.8017 32.9933 64.2484 33.2466 64.5017C33.5 64.755 33.86 64.8817 34.3266 64.8817C34.8066 64.8817 35.2133 64.7084 35.5466 64.3617C35.8933 64.0017 36.0666 63.4284 36.0666 62.6417V57.2817H39.4666V67.2817H36.4266L36.3266 65.4017C36.0066 66.1084 35.56 66.635 34.9866 66.9817C34.4133 67.315 33.72 67.4817 32.9066 67.4817ZM46.1095 67.4817C45.1095 67.4817 44.1828 67.3217 43.3295 67.0017C42.4761 66.6684 41.7628 66.195 41.1895 65.5817L42.7895 63.7017C43.1228 64.1284 43.5628 64.4884 44.1095 64.7817C44.6695 65.0617 45.2895 65.2017 45.9695 65.2017C46.3828 65.2017 46.7228 65.1417 46.9895 65.0217C47.2561 64.9017 47.3895 64.715 47.3895 64.4617C47.3895 64.2884 47.3228 64.1417 47.1895 64.0217C47.0561 63.9017 46.7895 63.8017 46.3895 63.7217L44.9895 63.4417C43.7361 63.1884 42.8428 62.815 42.3095 62.3217C41.7895 61.815 41.5295 61.155 41.5295 60.3417C41.5295 59.795 41.6961 59.275 42.0295 58.7817C42.3628 58.2884 42.8761 57.8817 43.5695 57.5617C44.2628 57.2417 45.1495 57.0817 46.2295 57.0817C48.2961 57.0817 49.8028 57.655 50.7495 58.8017L49.1295 60.6417C48.8095 60.2417 48.3961 59.9284 47.8895 59.7017C47.3828 59.475 46.8761 59.3617 46.3695 59.3617C45.3961 59.3617 44.9095 59.6084 44.9095 60.1017C44.9095 60.275 44.9895 60.4284 45.1495 60.5617C45.3228 60.695 45.6361 60.8017 46.0895 60.8817L47.9095 61.2417C48.9361 61.4417 49.6761 61.7884 50.1295 62.2817C50.5828 62.7617 50.8095 63.3484 50.8095 64.0417C50.8095 65.015 50.4161 65.835 49.6295 66.5017C48.8561 67.155 47.6828 67.4817 46.1095 67.4817ZM54.2735 56.1217C53.5802 56.1217 53.0735 55.995 52.7535 55.7417C52.4468 55.475 52.2935 55.0617 52.2935 54.5017C52.2935 53.9284 52.4468 53.515 52.7535 53.2617C53.0735 52.995 53.5802 52.8617 54.2735 52.8617C54.9535 52.8617 55.4535 52.995 55.7735 53.2617C56.0935 53.515 56.2535 53.9284 56.2535 54.5017C56.2535 55.0617 56.0935 55.475 55.7735 55.7417C55.4535 55.995 54.9535 56.1217 54.2735 56.1217ZM55.9735 57.2817V67.2817H52.5735V57.2817H55.9735ZM63.1338 57.0817C64.1472 57.0817 64.9872 57.2284 65.6538 57.5217C66.3338 57.815 66.8605 58.195 67.2338 58.6617C67.6072 59.1284 67.8472 59.635 67.9538 60.1817L64.8138 61.2217C64.7338 60.6484 64.5672 60.2217 64.3138 59.9417C64.0605 59.6484 63.7005 59.5017 63.2338 59.5017C62.5938 59.5017 62.1072 59.7284 61.7738 60.1817C61.4538 60.635 61.2938 61.3484 61.2938 62.3217C61.2938 63.3084 61.4672 64.015 61.8138 64.4417C62.1738 64.855 62.6538 65.0617 63.2538 65.0617C64.2005 65.0617 64.7538 64.5217 64.9138 63.4417L67.9738 64.4217C67.8272 65.2884 67.3405 66.015 66.5138 66.6017C65.7005 67.1884 64.6205 67.4817 63.2738 67.4817C61.6338 67.4817 60.3205 67.0284 59.3338 66.1217C58.3605 65.2017 57.8738 63.9217 57.8738 62.2817C57.8738 61.1884 58.0938 60.255 58.5338 59.4817C58.9872 58.7084 59.6072 58.115 60.3938 57.7017C61.1805 57.2884 62.0938 57.0817 63.1338 57.0817Z" />
</svg>