<svg viewBox="0 0 116 132" fill="none" xmlns="http://www.w3.org/2000/svg">
<path d="M58 0L115.158 33V99L58 132L0.842323 99V33L58 0Z" fill="#bb69ff"/>
<path d="M85.7202 44.1112C84.048 42.4389 82.0626 41.1126 79.8775 40.208C77.6924 39.3034 75.3505 38.8382 72.9856 38.8391C70.6206 38.84 68.2791 39.3069 66.0947 40.2132C63.9103 41.1194 61.9259 42.4472 60.2549 44.1207L58.0736 46.3285L55.9105 44.1255L55.8965 44.1115C54.225 42.44 52.2407 41.1141 50.0568 40.2095C47.873 39.3049 45.5323 38.8393 43.1685 38.8393C40.8047 38.8393 38.4641 39.3049 36.2802 40.2095C34.0963 41.1141 32.112 42.44 30.4405 44.1115L29.4688 45.0832C26.0932 48.4588 24.1968 53.0372 24.1968 57.8111C24.1968 62.585 26.0932 67.1633 29.4688 70.539L55.115 96.1849L58.0112 99.2193L58.0803 99.1501L58.1552 99.2251L60.8687 96.3621L86.692 70.5385C90.0625 67.1602 91.9555 62.5829 91.9555 57.8106C91.9555 53.0384 90.0625 48.4611 86.692 45.0827L85.7202 44.1112ZM83.5093 67.3566L58.0803 92.7863L32.6506 67.3566C30.1189 64.8249 28.6966 61.3911 28.6966 57.8107C28.6966 54.2303 30.1189 50.7965 32.6506 48.2648L33.6225 47.2931C36.153 44.7626 39.5847 43.3404 43.1633 43.3391C46.742 43.3377 50.1747 44.7573 52.7071 47.2859L58.0639 52.7403L63.4462 47.2931C64.6998 46.0395 66.188 45.0451 67.8259 44.3666C69.4638 43.6882 71.2193 43.339 72.9922 43.339C74.7651 43.339 76.5205 43.6882 78.1584 44.3666C79.7963 45.0451 81.2846 46.0395 82.5382 47.2931L83.5099 48.2647C86.0378 50.7985 87.4574 54.2316 87.4573 57.8108C87.4572 61.3899 86.0374 64.8229 83.5093 67.3566V67.3566Z" fill="#fafafa"/>
</svg>
