<svg viewBox="0 0 116 132" fill="none" xmlns="http://www.w3.org/2000/svg">
<path d="M58 0L115.158 33V99L58 132L0.842323 99V33L58 0Z" fill="#bb69ff"/>
<path d="M82.7559 65.209C70.3169 51.1293 49.3778 50.2762 35.9022 62.8622C35.2807 63.5028 34.4516 64.1424 33.8291 64.9955L33 66.4892L34.0366 67.7693L34.2441 67.9818C46.4756 81.848 67.4147 82.7021 80.8903 70.1151C81.5118 69.4755 82.3409 68.836 82.9634 67.9818L84 66.4892L82.7559 65.209ZM54.1467 66.4892C54.1467 64.1424 56.0123 62.2227 58.293 62.2227C60.5727 62.2227 62.4393 64.1424 62.4393 66.4892C62.4393 68.836 60.5727 70.7557 58.293 70.7557C56.0123 70.7557 54.1467 68.836 54.1467 66.4892ZM55.5973 58.3822C51.2434 59.8759 48.9638 64.5694 50.2068 69.0484C51.0369 71.6088 52.9026 73.742 55.5973 74.5951C49.1703 73.9555 42.9508 71.1817 38.1829 66.4892C43.1583 61.7956 49.1703 59.0228 55.5973 58.3822ZM60.9877 74.5951C65.3415 73.1025 67.6222 68.4089 66.3781 63.9288C65.5491 61.3696 63.6824 59.2363 60.9877 58.3822C67.4147 59.0228 73.6342 61.7956 78.4021 66.4892C73.4267 71.1817 67.4147 73.9555 60.9877 74.5951Z" fill="#fafafa"/>
<path d="M58.5 31C38.8698 31 23 46.8708 23 66.5C23 86.1292 38.8698 102 58.5 102C78.1292 102 94 86.1292 94 66.5C94 46.8708 78.1292 31 58.5 31ZM58.5 97.8235C41.167 97.8235 27.1765 83.8319 27.1765 66.5C27.1765 49.167 41.167 35.1765 58.5 35.1765C75.8319 35.1765 89.8235 49.167 89.8235 66.5C89.8235 83.8319 75.8319 97.8235 58.5 97.8235Z" fill="#fafafa"/>
</svg>
