<svg id="Layer_1" data-name="Layer 1" xmlns="http://www.w3.org/2000/svg" viewBox="0 0 320.36 319.04"><defs><style>.cls-1{fill:#eb5a5c;}.cls-2,.cls-3{fill:#fff;}.cls-3{fill-rule:evenodd;}</style></defs><circle class="cls-1" cx="160.85" cy="160.04" r="159"/><circle class="cls-2" cx="119.24" cy="160.04" r="36.28"/><circle class="cls-1" cx="119.24" cy="160.04" r="21.34"/><rect class="cls-2" x="140.58" y="36.26" width="14.94" height="124.85"/><path class="cls-3" d="M202.47,196.33A36.29,36.29,0,1,1,238.75,160a35.36,35.36,0,0,1-.25,4.27h-58a21.34,21.34,0,0,0,36.42,10.4l11.79,10.41A36.23,36.23,0,0,1,202.47,196.33ZM201.4,138.7a21.36,21.36,0,0,1,19.07,11.74H182.34A21.34,21.34,0,0,1,201.4,138.7Z"/><path class="cls-2" d="M85.94,238.33v-24.5h7.45l.25,4.75a8.65,8.65,0,0,1,3.28-3.92,9.3,9.3,0,0,1,5-1.32,8.83,8.83,0,0,1,4.7,1.22,7.29,7.29,0,0,1,3,3.63,7.84,7.84,0,0,1,3.33-3.63,10.06,10.06,0,0,1,4.9-1.22,8.39,8.39,0,0,1,6,2.2c1.6,1.44,2.4,3.59,2.4,6.47v16.32h-8.33V223.92a4.58,4.58,0,0,0-.93-3.28,3.25,3.25,0,0,0-2.4-.93,3.91,3.91,0,0,0-3.09,1.42,6,6,0,0,0-1.22,4.11v13.09h-8.33V223.92a4.58,4.58,0,0,0-.93-3.28,3.25,3.25,0,0,0-2.4-.93,4.17,4.17,0,0,0-3,1.32c-.85.88-1.28,2.34-1.28,4.36v12.94Zm54.41.49a9,9,0,0,1-6.07-2q-2.35-2-2.35-6.62V213.83h8.33v14.4a4.62,4.62,0,0,0,.93,3.29,3.57,3.57,0,0,0,2.64.93,4,4,0,0,0,3-1.28A5.89,5.89,0,0,0,148.1,227V213.83h8.33v24.5H149l-.25-4.61a8.42,8.42,0,0,1-3.28,3.87A10,10,0,0,1,140.35,238.82Zm32.35,0a19.33,19.33,0,0,1-6.81-1.18,14.08,14.08,0,0,1-5.24-3.48l3.92-4.6a9.64,9.64,0,0,0,7.79,3.67,6.22,6.22,0,0,0,2.5-.44,1.44,1.44,0,0,0,1-1.37,1.41,1.41,0,0,0-.49-1.08,4.53,4.53,0,0,0-2-.74l-3.43-.68q-4.61-.93-6.57-2.75a6.47,6.47,0,0,1-1.91-4.85,6.76,6.76,0,0,1,1.22-3.82,9,9,0,0,1,3.78-3,15.67,15.67,0,0,1,6.51-1.17q7.6,0,11.08,4.21l-4,4.51a8,8,0,0,0-3-2.3,9,9,0,0,0-3.72-.84c-2.39,0-3.58.61-3.58,1.82a1.43,1.43,0,0,0,.59,1.12,5.55,5.55,0,0,0,2.3.79l4.46.88a9.72,9.72,0,0,1,5.44,2.55,6,6,0,0,1,1.66,4.31,7.62,7.62,0,0,1-2.89,6C179.43,238,176.55,238.82,172.7,238.82Zm20-27.84a6,6,0,0,1-3.72-.93,3.8,3.8,0,0,1-1.13-3,3.73,3.73,0,0,1,1.13-3,7.47,7.47,0,0,1,7.4,0,3.65,3.65,0,0,1,1.17,3,3.72,3.72,0,0,1-1.17,3A5.93,5.93,0,0,1,192.7,211Zm4.17,2.85v24.5h-8.33v-24.5Zm17.54-.49a15.52,15.52,0,0,1,6.17,1.07,9.7,9.7,0,0,1,3.87,2.8,8.42,8.42,0,0,1,1.77,3.72l-7.69,2.55a5.85,5.85,0,0,0-1.23-3.14,3.3,3.3,0,0,0-2.65-1.07,4.15,4.15,0,0,0-3.57,1.66,9.16,9.16,0,0,0-1.18,5.24q0,3.63,1.28,5.2a4.44,4.44,0,0,0,3.52,1.52c2.32,0,3.68-1.33,4.07-4l7.5,2.4a8.12,8.12,0,0,1-3.58,5.34,13.26,13.26,0,0,1-7.94,2.16q-6,0-9.65-3.34t-3.58-9.4a13.63,13.63,0,0,1,1.62-6.86,11.19,11.19,0,0,1,4.56-4.36A14.1,14.1,0,0,1,214.41,213.34Z"/></svg>